<svg width="1274" height="248" viewBox="0 0 1274 248" fill="none" xmlns="http://www.w3.org/2000/svg">
<path d="M0 196.092V193.997C4.03298 192.287 7.66791 189.706 10.663 186.428C13.6581 183.15 15.9446 179.249 17.3706 174.984C20.5962 165.949 22.2089 149.769 22.2089 126.444C22.2089 126.444 22.2089 125.047 22.2089 122.788C22.2089 120.53 22.2089 118.353 22.2089 116.259L22.4469 56.9179C22.4469 46.1175 21.1778 38.397 18.481 33.8386C15.2968 28.6857 10.4248 24.8947 4.75905 23.1614V21.067C8.368 21.067 12.4132 21.067 16.9343 21.3955H24.866C29.5062 21.3955 33.3531 21.3955 36.486 21.3955C39.6191 21.3955 42.7126 21.3955 45.8059 21.0259C56.9104 47.5548 67.7901 72.1949 78.4451 94.9454C89.1001 117.696 100.02 139.598 111.203 160.652L170.692 21.2313H173.824C179.8 21.4776 183.924 21.6008 186.198 21.6008C190.481 21.6008 197.54 21.6008 207.296 21.108H208.169V23.2024C205.736 23.4635 203.404 24.352 201.388 25.7868C199.372 27.2217 197.735 29.1569 196.629 31.4158C194.486 35.9056 193.416 44.2969 193.416 56.5894V137.08C193.416 159.337 194.619 173.943 197.025 180.898C198.042 184.165 199.858 187.104 202.298 189.428C204.737 191.754 207.716 193.384 210.945 194.161V196.256C204.877 196.01 199.404 195.804 194.526 195.681C189.648 195.558 185.405 195.681 181.796 195.681C178.187 195.681 173.468 195.681 168.906 195.681C164.346 195.681 159.508 196.01 154.392 196.256V194.161C157.605 193.445 160.58 191.865 163.017 189.58C165.453 187.295 167.266 184.385 168.273 181.144C170.731 174.217 171.947 158.886 171.921 135.15V35.4402L102.399 200.404H100.614C90.6203 175.491 80.1636 150.85 69.2443 126.485C58.3249 102.118 45.0127 73.824 29.3078 41.6001L29.0302 102.215V122.378C29.0302 147.565 30.6298 164.827 33.8289 174.162C35.1748 178.538 37.4012 182.568 40.3612 185.987C43.3213 189.406 46.9476 192.136 51.0012 193.997V196.092C46.2025 195.845 41.8003 195.64 37.7948 195.517C33.7892 195.394 30.22 195.517 27.0077 195.517C23.7953 195.517 19.0759 195.517 14.7134 195.517C10.351 195.517 5.35394 195.845 0 196.092Z" fill="white"/>
<path d="M222.565 196.092V193.998C225.548 193.178 228.299 191.631 230.589 189.488C232.879 187.346 234.642 184.668 235.732 181.677C238.138 175.298 239.34 162.185 239.34 142.336V93.1381C239.34 82.6665 238.349 75.9729 236.366 72.9746C234.995 71.3217 233.27 70.0232 231.328 69.1817C229.386 68.3404 227.283 67.9799 225.182 68.1291V66.0348C230.285 65.3299 235.333 64.2596 240.293 62.8316C245.58 61.3258 252.19 59.0808 260.122 56.0967C259.884 63.2833 259.686 70.4703 259.567 77.6568C259.448 84.8433 259.567 92.0298 259.567 99.2571V135.807C259.567 159.461 260.757 174.614 263.096 181.184C264.143 184.317 265.928 187.129 268.29 189.367C270.651 191.604 273.514 193.196 276.619 193.998V196.092C273.09 195.845 269.322 195.64 265.357 195.517C261.391 195.394 256.037 195.517 249.216 195.517C243.98 195.517 239.34 195.517 235.255 195.517C231.171 195.517 226.769 195.845 222.565 196.092ZM235.93 23.0793C235.882 21.385 236.164 19.6982 236.756 18.1183C237.349 16.5384 238.241 15.0974 239.38 13.8804C240.527 12.6786 241.901 11.7339 243.415 11.1052C244.93 10.4763 246.554 10.1769 248.185 10.2255C249.815 10.1932 251.434 10.5083 252.942 11.1512C254.45 11.794 255.814 12.751 256.949 13.9625C258.125 15.1432 259.051 16.5623 259.672 18.1311C260.293 19.6998 260.594 21.3843 260.558 23.0793C260.595 24.756 260.293 26.4223 259.672 27.971C259.05 29.5198 258.123 30.917 256.949 32.0728C255.275 33.9734 253.075 35.2937 250.649 35.8543C248.224 36.415 245.692 36.1885 243.395 35.2059C241.099 34.2233 239.15 32.5321 237.815 30.3625C236.478 28.1928 235.821 25.6497 235.93 23.0793Z" fill="white"/>
<path d="M373.585 195.312H288.2V193.751C300.257 179.569 315.155 161.076 332.896 138.271L336.584 133.589L360.38 102.83L361.768 101.146C377.261 81.0235 385.007 69.4845 385.007 66.5275C385.007 64.8027 383.501 63.5297 380.526 62.7084C376 61.764 371.378 61.3917 366.764 61.5996C346.301 61.5996 331.35 63.7351 321.91 68.006C311.639 73.0055 302.716 80.5525 295.934 89.9765L294.664 89.4836L306.563 56.261H415.664V58.0679C408.023 67.5679 400.514 77.2455 393.138 87.1017C385.761 96.9579 378.292 107.334 370.731 118.231L348.482 150.262C340.55 161.761 335.117 169.851 332.618 174.532C330.56 177.491 329.201 180.91 328.652 184.511C328.652 186.606 329.961 188.002 332.618 188.618C338.901 189.621 345.263 189.992 351.615 189.726C365.639 190.239 379.61 187.693 392.622 182.253C404.239 176.485 414.356 167.925 422.128 157.284L423.874 157.818L411.975 195.845H403.647C388.934 195.435 378.94 195.312 373.585 195.312Z" fill="white"/>
<path d="M434.462 124.062C434.155 114.418 435.839 104.817 439.402 95.9004C442.965 86.9842 448.325 78.9583 455.125 72.3593C468.873 59.0262 486.653 52.346 508.466 52.3186C530.278 52.2912 547.952 59.0398 561.489 72.5644C568.248 79.4104 573.546 87.6474 577.044 96.7428C580.54 105.839 582.159 115.593 581.794 125.375C581.794 147.277 575.026 164.95 561.489 178.392C547.952 191.835 530 198.57 507.633 198.597C486.032 198.597 468.45 191.753 454.887 178.064C441.323 164.375 434.515 146.374 434.462 124.062ZM458.257 124.349C458.257 146.114 462.633 162.993 471.384 174.984C475.652 180.866 481.244 185.579 487.672 188.714C494.099 191.848 501.17 193.31 508.267 192.972C515.29 193.346 522.293 191.928 528.663 188.841C535.033 185.755 540.571 181.095 544.793 175.272C553.359 163.445 557.629 146.552 557.602 124.596C557.602 103.077 553.254 86.3629 544.555 74.4534C540.089 68.895 534.496 64.4215 528.173 61.3517C521.851 58.2819 514.953 56.6906 507.97 56.6906C500.986 56.6906 494.088 58.2819 487.766 61.3517C481.444 64.4215 475.85 68.895 471.384 74.4534C462.765 86.3629 458.455 102.994 458.455 124.349H458.257Z" fill="white"/>
<path d="M738.843 33.7566L730.118 61.9692H728.611C726.762 58.0474 723.838 54.7766 720.204 52.565C716.653 50.2029 712.527 48.9352 708.306 48.9102C705.331 48.8903 702.39 49.564 699.7 50.8813C696.628 52.4426 693.849 54.556 691.49 57.1234C701.703 60.7853 710.866 67.0401 718.141 75.3157C723.971 82.6137 727.068 91.8416 726.866 101.31C727.055 107.77 725.754 114.184 723.072 120.018C720.388 125.853 716.401 130.942 711.439 134.862C701.181 143.267 686.494 148.249 667.378 149.811C665.039 149.811 661.667 150.221 657.305 150.467C642.711 151.371 635.413 154.122 635.334 158.681C635.255 163.239 645.645 166.689 666.268 168.619L672.811 169.153C696.606 171.342 713.462 175.148 723.376 180.569C727.84 182.573 731.638 185.892 734.296 190.112C736.954 194.332 738.356 199.267 738.327 204.305C738.327 217.364 731.096 227.891 716.634 235.885C702.172 243.879 682.74 247.918 658.336 248C638.454 248 622.14 244.646 609.397 237.939C596.653 231.231 590.281 222.649 590.281 212.19C590.297 208.025 591.368 203.937 593.386 200.334C595.404 196.732 598.299 193.739 601.783 191.657C609.45 186.373 621.347 182.417 637.476 179.788C630.896 179.559 624.426 177.982 618.439 175.148C616.661 174.34 615.145 173.02 614.069 171.346C612.994 169.671 612.404 167.714 612.371 165.703C612.52 163.237 613.315 160.86 614.67 158.826C616.026 156.793 617.891 155.181 620.065 154.163C627.382 150.339 635.286 147.866 643.424 146.853C631.36 145.068 620.11 139.508 611.181 130.92C607.455 127.1 604.519 122.533 602.556 117.499C600.591 112.464 599.64 107.068 599.76 101.639C599.792 94.6796 601.463 87.8326 604.629 81.6927C607.793 75.5527 612.357 70.305 617.924 66.4043C631.022 56.5264 646.941 51.4802 663.135 52.0722C666.492 52.1122 669.843 52.3728 673.169 52.8525C676.817 53.3864 681.377 54.2077 686.85 55.3575C692.589 48.5906 699.453 42.9436 707.116 38.6845C713.551 35.0118 720.75 33.0108 728.096 32.8531C729.444 32.8531 731.07 32.8532 732.894 33.0585C734.887 33.1842 736.874 33.4172 738.843 33.7566ZM656.908 183.813C641.838 183.813 630.072 186.414 621.612 191.616C617.789 193.602 614.575 196.652 612.334 200.424C610.092 204.196 608.909 208.541 608.921 212.971C608.921 222.224 613.535 229.479 622.762 234.735C631.963 239.992 644.733 242.662 661.072 242.662C679.078 242.662 693.328 239.923 703.825 234.448C714.321 228.973 719.609 221.43 719.688 211.821C719.688 202.868 714.295 196.024 703.507 191.288C692.72 186.551 677.187 184.059 656.908 183.813ZM663.849 56.877C658.184 56.6421 652.532 57.6145 647.245 59.7337C641.959 61.8529 637.148 65.0739 633.113 69.1967C629.119 73.5183 626.006 78.6296 623.962 84.2249C621.917 89.8202 620.984 95.7849 621.216 101.762C620.934 107.665 621.848 113.563 623.897 119.08C625.945 124.596 629.084 129.608 633.113 133.795C641.045 141.57 651.832 145.443 665.475 145.416C670.94 145.722 676.404 144.777 681.476 142.647C686.549 140.518 691.105 137.257 694.822 133.097C701.855 124.883 705.371 113.467 705.371 98.8469C705.621 93.2008 704.743 87.5618 702.791 82.2831C700.839 77.0045 697.856 72.1999 694.029 68.1702C689.977 64.3029 685.22 61.312 680.038 59.3728C674.855 57.4336 669.351 56.585 663.849 56.877Z" fill="white"/>
<path d="M871.026 169.769C866.723 179.049 859.811 186.764 851.196 191.903C841.79 196.999 831.27 199.489 820.66 199.131C810.835 199.393 801.059 197.62 791.906 193.915C784.252 190.621 777.664 185.137 772.91 178.105C769.73 173.265 767.542 167.799 766.486 162.048C764.95 152.083 764.313 141.992 764.582 131.906V94.4525C764.582 83.3646 763.59 76.3015 761.608 73.2216C760.235 71.5208 758.499 70.1755 756.538 69.2913C754.575 68.4076 752.441 68.0095 750.304 68.1291V66.0347C755.662 65.3146 760.963 64.203 766.168 62.7083C771.839 61.0657 778.343 58.8892 785.68 56.0967C785.323 63.6118 785.085 70.9632 784.887 78.0671C784.689 85.1719 784.649 91.9063 784.649 98.3131V119.832C784.649 149.399 787.703 168.879 793.81 178.269C799.918 187.66 810.494 192.341 825.538 192.314C841.4 192.314 853.074 186.839 860.556 175.887C868.038 164.936 871.727 147.716 871.62 124.226V102.091C871.62 86.7731 870.629 77.4517 868.686 73.8788C867.417 71.9769 865.695 70.4484 863.687 69.4407C861.678 68.4336 859.451 67.9816 857.224 68.1291V66.0347C862.994 65.0068 868.701 63.6357 874.318 61.9281C880.068 60.2854 886.018 58.2731 892.164 55.9324C891.847 63.0369 891.609 70.0999 891.411 77.1231C891.212 84.1453 891.173 91.1266 891.173 98.1488V123.979C891.173 152.945 892.349 171.48 894.703 179.583C897.042 187.796 901.405 192.479 907.711 193.834V195.681H904.537C896.051 195.394 890.023 195.271 886.493 195.271H879.949C877.993 191.354 876.258 187.322 874.754 183.197C873.187 178.825 871.941 174.336 871.026 169.769Z" fill="white"/>
<path d="M1038.38 154.656L1042.35 159.748C1037.42 171.612 1029.32 181.77 1019 189.028C1008.7 195.899 996.657 199.418 984.411 199.131C974.883 199.479 965.384 197.841 956.48 194.314C947.576 190.786 939.447 185.441 932.576 178.597C925.842 171.778 920.55 163.584 917.035 154.536C913.519 145.487 911.856 135.781 912.153 126.032C912.153 104.13 918.934 86.3349 932.497 72.646C946.061 58.9576 963.854 52.1132 985.878 52.1132C995.752 52.0908 1005.59 53.4727 1015.11 56.2198C1024.31 58.9245 1033.1 62.9763 1041.2 68.2523L1032.6 96.9987H1031.37C1029.41 85.7534 1023.8 75.5318 1015.5 68.0059C1007.38 60.9687 997.065 57.2319 986.472 57.4929C979.467 57.1901 972.491 58.6014 966.111 61.6124C959.73 64.6234 954.125 69.1489 949.748 74.8228C940.76 86.3768 936.252 102.215 936.225 122.337C936.225 143.773 940.985 160.583 950.503 172.766C958.695 182.593 970.086 188.962 982.515 190.665C994.944 192.369 1007.54 189.287 1017.92 182.006C1026.87 174.827 1033.9 165.417 1038.38 154.656Z" fill="white"/>
<path d="M1053.14 196.092V193.998C1055.9 193.236 1058.45 191.85 1060.62 189.94C1062.8 188.029 1064.53 185.642 1065.71 182.951C1068.02 177.475 1069.16 166.866 1069.16 151.124V39.2184C1069.16 27.3091 1068.19 19.9309 1066.26 17.0836C1064.87 15.4716 1063.16 14.1949 1061.24 13.3435C1059.33 12.492 1057.25 12.0865 1055.16 12.1556V10.0613C1060.66 9.30233 1066.11 8.14972 1071.46 6.61164C1077.53 4.8083 1083.48 2.59977 1089.27 0C1089.08 8.21325 1088.87 18.4115 1088.63 30.5945C1088.19 47.0211 1087.98 56.261 1088 58.3143V91.7838C1090.41 79.9959 1097 69.5741 1106.48 62.5851C1116.94 55.3754 1129.34 51.7814 1141.89 52.3186C1161.09 52.3186 1174.85 57.6572 1183.18 68.3344C1191.51 79.012 1195.64 97.3004 1195.56 123.2V147.51C1195.56 165.389 1196.69 177.12 1198.96 182.704C1200.08 185.459 1201.81 187.907 1204 189.854C1206.18 191.799 1208.78 193.191 1211.58 193.915V196.01C1207.13 195.764 1202.73 195.559 1198.41 195.435C1194.08 195.312 1189.69 195.435 1185.21 195.435C1181.91 195.435 1178.14 195.435 1173.82 195.435C1169.5 195.435 1164.82 195.764 1159.7 196.01V193.915C1162.51 193.221 1165.13 191.841 1167.32 189.892C1169.52 187.942 1171.23 185.477 1172.31 182.704C1174.56 177.037 1175.69 165.306 1175.72 147.51V120.16C1175.72 98.2584 1172.63 82.6805 1166.44 73.4267C1160.26 64.1731 1150.26 59.4916 1136.46 59.382C1129.83 59.0286 1123.2 60.2895 1117.12 63.0635C1111.04 65.8375 1105.67 70.0481 1101.44 75.3565C1093.03 86.0611 1088.84 101.119 1088.87 120.53V140.529C1088.87 162.664 1089.99 176.668 1092.29 182.499C1093.37 185.364 1095.11 187.915 1097.36 189.937C1099.6 191.96 1102.28 193.395 1105.17 194.121V196.216C1100.69 195.969 1096.33 195.764 1092.01 195.64C1087.68 195.517 1083.48 195.64 1079.27 195.64C1073.13 195.64 1068.13 195.64 1064.32 195.64C1060.51 195.64 1056.67 195.845 1053.14 196.092Z" fill="white"/>
<path d="M1219.91 196.092V193.998C1222.89 193.187 1225.66 191.644 1227.96 189.5C1230.26 187.357 1232.02 184.675 1233.11 181.677C1235.54 175.298 1236.74 162.185 1236.72 142.336V93.1381C1236.72 82.6665 1235.73 75.9729 1233.75 72.9746C1232.38 71.3217 1230.65 70.0232 1228.7 69.1817C1226.76 68.3404 1224.66 67.9799 1222.56 68.1291V66.0348C1227.67 65.3299 1232.71 64.2596 1237.67 62.8316C1242.96 61.3258 1249.57 59.0808 1257.5 56.0967C1257.26 63.2833 1257.06 70.4703 1256.94 77.6568C1256.82 84.8433 1256.94 92.0298 1256.94 99.2571V135.807C1256.94 159.461 1258.14 174.614 1260.48 181.184C1261.52 184.317 1263.3 187.129 1265.67 189.367C1268.03 191.604 1270.9 193.196 1274 193.998V196.092C1270.43 195.845 1266.71 195.64 1262.74 195.517C1258.77 195.394 1253.41 195.517 1246.6 195.517C1241.36 195.517 1236.72 195.517 1232.63 195.517C1228.55 195.517 1224.15 195.845 1219.91 196.092ZM1233.39 23.0793C1233.34 21.385 1233.62 19.6982 1234.22 18.1183C1234.8 16.5384 1235.7 15.0974 1236.84 13.8804C1237.99 12.6786 1239.36 11.7339 1240.87 11.1052C1242.39 10.4763 1244.01 10.1769 1245.64 10.2255C1247.27 10.1932 1248.89 10.5083 1250.4 11.1512C1251.91 11.794 1253.27 12.751 1254.41 13.9625C1255.58 15.1432 1256.51 16.5623 1257.13 18.1311C1257.75 19.6998 1258.05 21.3843 1258.02 23.0793C1258.05 24.756 1257.75 26.4223 1257.13 27.971C1256.51 29.5198 1255.58 30.917 1254.41 32.0728C1252.73 33.9734 1250.54 35.2937 1248.11 35.8543C1245.68 36.415 1243.15 36.1885 1240.85 35.2059C1238.55 34.2233 1236.6 32.5321 1235.27 30.3625C1233.94 28.1928 1233.28 25.6497 1233.39 23.0793Z" fill="white"/>
</svg>
