<svg width="788" height="178" viewBox="0 0 788 178" fill="none" xmlns="http://www.w3.org/2000/svg">
<path d="M0 175.235V173.145C3.04181 172.464 5.87614 171.03 8.25666 168.966C10.6372 166.902 12.4918 164.271 13.6595 161.301C16.0489 155.181 17.2436 139.527 17.2436 114.337V23.605C17.5932 18.573 16.4697 13.5485 14.0179 9.17975C11.1891 5.61228 7.2751 3.12921 2.90711 2.13101V0.0409811C9.75678 0.49177 14.8542 0.737656 18.8365 0.901582C22.8189 1.06551 25.7658 0.901582 28.7127 0.901582C33.9695 0.901582 41.8945 0.614715 52.607 0H54.7574V2.13101C50.32 2.7933 46.2995 5.18471 43.5273 8.81093C40.8669 13.239 39.6143 18.4102 39.9428 23.605V86.5518L82.2753 49.9147C91.7368 41.9957 100.677 33.4393 109.037 24.3017C114.094 18.3185 116.643 13.4418 116.643 9.58956C116.716 8.71355 116.604 7.83162 116.316 7.0041C116.027 6.17658 115.568 5.42296 114.97 4.79478C113.017 3.42361 110.755 2.5911 108.4 2.3769V0.286867C113.816 0.573735 118.714 0.737656 123.055 0.901582C127.395 1.06551 131.258 0.901582 134.643 0.901582C138.028 0.901582 142.369 0.901582 146.59 0.901582C150.812 0.901582 155.511 0.573735 160.528 0.286867V2.3769C152.317 6.01465 144.474 10.4758 137.113 15.6957C127.714 22.0888 116.577 30.5308 103.7 41.0218L58.0628 78.5604C70.5612 78.3648 82.9652 80.8201 94.5011 85.7731C104.425 90.9197 112.868 98.6475 118.993 108.19C122.258 112.971 126.864 120.102 132.811 129.582C147.334 152.832 159.281 167.189 168.653 172.653V174.743C165.108 174.743 161.604 174.743 158.259 174.538H147.068H136.874C134.643 174.538 132.652 174.538 130.86 174.743C123.692 164.443 114.692 150.701 103.86 133.516C84.3461 101.906 69.0008 86.101 57.8238 86.101C55.3293 85.9547 52.8345 86.3745 50.5151 87.3304C48.1961 88.2864 46.1097 89.7555 44.4034 91.6336C40.9508 96.0321 39.231 101.605 39.5847 107.247V120.033C39.5847 140.442 40.819 153.911 43.2882 160.44C44.4521 163.626 46.3683 166.463 48.8643 168.695C51.3604 170.927 54.3573 172.485 57.5848 173.227V175.317C52.8856 175.071 48.1865 174.866 43.5273 174.743C38.8677 174.62 33.4518 174.743 27.3189 174.743C23.3366 174.743 19.0755 174.743 14.5754 174.743C10.0753 174.743 5.09742 174.989 0 175.235Z" fill="white"/>
<path d="M168.572 103.353C168.256 93.7318 169.94 84.1521 173.511 75.2541C177.082 66.3561 182.459 58.3457 189.281 51.7582C203.086 38.3985 220.94 31.7322 242.843 31.7595C264.746 31.7869 282.494 38.5214 296.087 51.9633C302.895 58.7809 308.232 66.9968 311.752 76.0769C315.272 85.1566 316.895 94.8969 316.517 104.665C316.517 126.521 309.707 144.157 296.087 157.571C282.468 170.986 264.388 177.707 241.848 177.734C220.104 177.734 202.436 170.904 188.843 157.243C175.25 143.583 168.493 125.62 168.572 103.353ZM192.467 103.64C192.467 125.36 196.86 142.204 205.648 154.17C209.945 160.07 215.584 164.796 222.068 167.933C228.553 171.069 235.686 172.521 242.843 172.161C249.9 172.531 256.938 171.114 263.339 168.034C269.741 164.955 275.311 160.307 279.561 154.498C288.136 142.695 292.423 125.838 292.423 103.927C292.423 82.4529 288.043 65.7738 279.282 53.8895C275.044 48.0688 269.485 43.4047 263.092 40.3044C256.698 37.2038 249.664 35.7616 242.604 36.1035C235.563 35.7882 228.554 37.2385 222.178 40.3298C215.803 43.421 210.253 48.06 206.007 53.8482C197.113 65.7328 192.666 82.3301 192.666 103.64H192.467Z" fill="white"/>
<path d="M321.894 49.4636L323.407 45.3652C331.644 42.9048 339.077 38.1879 344.912 31.7187C352.351 22.6385 358.322 12.385 362.594 1.35175H364.624C364.266 6.47438 363.987 12.3347 363.709 18.8916C363.43 25.4486 363.31 32.8251 363.231 41.0215H391.107V42.8654L388.439 49.6274H362.833L363.47 111.632C363.629 135.974 365.089 151.902 367.85 159.415C368.975 162.91 370.979 166.036 373.657 168.476C376.337 170.916 379.595 172.584 383.103 173.308V175.152L364.943 174.824H352.996C349.401 172.567 346.704 169.065 345.39 164.948C343.602 157.042 342.905 148.916 343.319 140.81V124.417C343.478 121.303 343.558 118.571 343.558 116.221L344.553 49.4223L321.894 49.4636Z" fill="white"/>
<path d="M543.391 174.988H542.635C533.399 174.619 526.708 174.456 522.723 174.456H515.716C511.32 166.442 508.162 157.773 506.355 148.76C501.631 157.951 494.409 165.527 485.567 170.562C475.991 175.704 465.303 178.256 454.507 177.98C438.18 177.98 425.262 174.018 415.757 166.095C411.121 162.292 407.416 157.423 404.938 151.878C402.464 146.334 401.285 140.269 401.5 134.171C401.5 119.309 409.918 108.011 426.749 100.28C443.58 92.5482 468.233 88.7097 500.7 88.7641H507.155C506.703 70.8965 503.026 57.755 496.123 49.3403C489.221 40.9256 478.601 36.7046 464.264 36.6773C452.937 36.1352 441.749 39.4162 432.405 46.021C424.095 52.5055 418.591 62.084 417.072 72.6995H415.677L407.712 45.4474C416.313 40.684 425.502 37.154 435.031 34.9561C445.251 32.5756 455.699 31.4068 466.174 31.4727C475.947 31.3149 485.679 32.7676 495.008 35.7757C502.602 38.1685 509.533 42.382 515.237 48.07C519.493 52.6943 522.587 58.323 524.238 64.4625C526.376 74.5931 527.275 84.9606 526.904 95.321V114.5C526.904 136.603 528.099 151.52 530.489 159.252C531.236 162.58 532.839 165.642 535.129 168.115C537.419 170.588 540.317 172.382 543.511 173.308L543.391 174.988ZM506.995 94.2967H502.734H495.844C473.197 94.2967 455.715 97.9301 443.396 105.198C437.84 108.044 433.176 112.438 429.93 117.879C426.685 123.32 424.99 129.59 425.038 135.974C424.838 140.637 425.622 145.288 427.332 149.61C429.043 153.932 431.645 157.822 434.955 161.014C442.181 167.539 451.594 170.918 461.198 170.439C467.461 170.764 473.721 169.673 479.536 167.245C485.348 164.817 490.576 161.11 494.848 156.383C503.026 147.039 507.099 134.103 507.075 117.574V94.2967H506.995Z" fill="white"/>
<path d="M551.437 175.234V173.144C554.306 172.404 556.972 170.99 559.227 169.014C561.477 167.037 563.256 164.552 564.419 161.751C566.781 156.014 567.964 143.72 567.964 124.869V78.2321C567.964 63.8615 566.969 55.105 564.978 51.9633C563.603 50.2346 561.841 48.8784 559.842 48.0139C557.844 47.1494 555.665 46.8028 553.507 47.0043V44.9144C558.047 43.89 562.984 42.6197 568.32 41.1442C573.659 39.6689 579.671 37.7838 586.442 35.5298L585.962 76.0602C590.447 64.3953 597.465 53.9388 606.474 45.4883C613.848 38.7475 623.369 35.0161 633.233 34.9971H636.379H638.409L628.533 64.3806H627.262C625.755 62.2795 623.809 60.5564 621.566 59.3398C619.356 58.2387 616.93 57.6779 614.476 57.7005C610.411 57.6171 606.41 58.7296 602.937 60.9078C599.468 63.0856 596.674 66.2384 594.883 69.995C590.343 78.1911 588.112 90.0754 588.112 105.648V121.221C588.112 142.367 589.227 155.768 591.538 161.423C592.709 164.266 594.507 166.786 596.798 168.78C599.088 170.773 601.802 172.184 604.719 172.898V174.988C600.179 174.742 595.678 174.537 591.222 174.414C586.761 174.291 582.421 174.414 578.12 174.414C574.495 174.414 570.474 174.414 566.169 174.414C561.869 174.414 556.653 174.988 551.437 175.234Z" fill="white"/>
<path d="M639.804 103.353C639.489 93.7318 641.171 84.1521 644.745 75.2541C648.314 66.3561 653.69 58.3457 660.512 51.7582C674.318 38.3985 692.172 31.7322 714.075 31.7595C735.978 31.7869 753.792 38.5214 767.518 51.9633C774.324 58.7809 779.664 66.9968 783.182 76.0769C786.703 85.1566 788.326 94.8969 787.946 104.665C787.946 126.521 781.139 144.157 767.518 157.571C753.9 170.986 735.858 177.707 713.4 177.734C691.656 177.734 673.986 170.904 660.392 157.243C646.799 143.583 639.936 125.62 639.804 103.353ZM663.698 103.64C663.698 125.36 668.09 142.204 676.88 154.17C681.344 159.778 686.956 164.301 693.315 167.416C699.678 170.531 706.629 172.161 713.671 172.188C720.714 172.215 727.676 170.64 734.06 167.574C740.443 164.509 746.09 160.03 750.595 154.457C759.22 142.654 763.537 125.797 763.537 103.886C763.537 82.412 759.156 65.7328 750.395 53.8482C745.91 48.3081 740.295 43.8507 733.952 40.7917C727.605 37.7327 720.682 36.147 713.675 36.147C706.669 36.147 699.75 37.7327 693.403 40.7917C687.06 43.8507 681.444 48.3081 676.96 53.8482C668.306 65.7328 663.978 82.3301 663.978 103.64H663.698Z" fill="white"/>
</svg>
